<svg width="28" height="28" viewBox="0 0 28 28" fill="none" xmlns="http://www.w3.org/2000/svg">
<circle cx="14" cy="14" r="14" fill="#F9C6B1"/>
<path d="M14 22.75C10.1337 22.75 7 19.6163 7 15.75V12.25C7 8.38367 10.1337 5.25 14 5.25C17.8663 5.25 21 8.38367 21 12.25V15.75C21 19.6163 17.8663 22.75 14 22.75Z" fill="white"/>
<mask id="mask0_1190_1058" style="mask-type:alpha" maskUnits="userSpaceOnUse" x="7" y="5" width="14" height="18">
<path d="M14 22.75C10.1337 22.75 7 19.6163 7 15.75V12.25C7 8.38367 10.1337 5.25 14 5.25C17.8663 5.25 21 8.38367 21 12.25V15.75C21 19.6163 17.8663 22.75 14 22.75Z" fill="white"/>
</mask>
<g mask="url(#mask0_1190_1058)">
<path d="M16.7392 17.424C17.4115 17.424 17.9566 16.8789 17.9566 16.2066C17.9566 15.5342 17.4115 14.9892 16.7392 14.9892C16.0668 14.9892 15.5218 15.5342 15.5218 16.2066C15.5218 16.8789 16.0668 17.424 16.7392 17.424Z" fill="#2D3D54"/>
<path d="M11.261 17.424C11.9334 17.424 12.4784 16.8789 12.4784 16.2066C12.4784 15.5342 11.9334 14.9892 11.261 14.9892C10.5887 14.9892 10.0436 15.5342 10.0436 16.2066C10.0436 16.8789 10.5887 17.424 11.261 17.424Z" fill="#2D3D54"/>
<path fill-rule="evenodd" clip-rule="evenodd" d="M-1.16644 6.41666C-1.16644 10.283 1.96722 13.4167 5.83356 13.4167C8.26841 13.4167 10.4127 12.1739 11.6667 10.2879C12.9208 12.1739 15.065 13.4167 17.4999 13.4167C21.3662 13.4167 24.4999 10.283 24.4999 6.41666V2.91666C24.4999 -0.949677 21.3662 -4.08334 17.4999 -4.08334C15.065 -4.08334 12.9208 -2.84055 11.6667 -0.954631C10.4127 -2.84055 8.26841 -4.08334 5.83356 -4.08334C1.96722 -4.08334 -1.16644 -0.949677 -1.16644 2.91666V6.41666Z" fill="#2D3D54"/>
</g>
<path d="M14 22.75C10.1337 22.75 7 19.6163 7 15.75V12.25C7 8.38367 10.1337 5.25 14 5.25C17.8663 5.25 21 8.38367 21 12.25V15.75C21 19.6163 17.8663 22.75 14 22.75Z" stroke="#2D3D54" stroke-width="2.93333" stroke-miterlimit="10" stroke-linecap="square"/>
</svg>
